<?xml version="1.0" encoding="iso-8859-1"?>
<!-- Generator: Adobe Illustrator 19.0.0, SVG Export Plug-In . SVG Version: 6.00 Build 0)  -->
<svg version="1.1" id="Layer_1" xmlns="http://www.w3.org/2000/svg" xmlns:xlink="http://www.w3.org/1999/xlink" x="0px" y="0px"
	 viewBox="0 0 512 512" style="enable-background:new 0 0 512 512;" xml:space="preserve">
<path style="fill:#65C27C;" d="M294.717,457.338c21.658,12.504,21.774,32.778,0.257,45.283s-56.52,12.505-78.179,0
	c-21.658-12.505-21.771-32.778-0.253-45.283C238.557,444.545,273.558,445.122,294.717,457.338z"/>
<g>
	<path style="fill:#D8D8DA;" d="M265.421,136.206c0.028-1.422-0.899-2.85-2.777-3.935c-3.603-2.08-9.563-2.179-13.312,0
		c-1.826,1.062-2.738,2.451-2.736,3.842c0-0.004,0-0.009,0-0.014l-0.014,342.376c-0.004,1.404,0.923,2.811,2.778,3.882
		c3.688,2.129,9.648,2.129,13.312,0c1.82-1.057,2.731-2.442,2.736-3.828l0.014-342.376
		C265.422,136.17,265.421,136.188,265.421,136.206z"/>
	<path style="fill:#D8D8DA;" d="M265.422,136.152l-0.014,342.376c-0.004,1.387-0.915,2.77-2.736,3.828
		c-3.664,2.129-9.624,2.129-13.312,0c-1.856-1.071-2.783-2.477-2.778-3.882l0.014-342.376c-0.004,1.404,0.923,2.811,2.778,3.882
		c3.688,2.129,9.648,2.129,13.312,0C264.506,138.923,265.418,137.539,265.422,136.152z"/>
</g>
<path style="fill:#E0E0E2;" d="M262.636,132.27c3.688,2.129,3.707,5.582,0.044,7.71c-3.664,2.129-9.624,2.129-13.312,0
	c-3.688-2.129-3.707-5.582-0.043-7.71C253.073,130.092,259.033,130.19,262.636,132.27z"/>
<circle style="fill:#FF3502;" cx="256" cy="109.975" r="109.975"/>
<circle style="fill:#FF6342;" cx="217.005" cy="79.558" r="51.113"/>
<g>
</g>
<g>
</g>
<g>
</g>
<g>
</g>
<g>
</g>
<g>
</g>
<g>
</g>
<g>
</g>
<g>
</g>
<g>
</g>
<g>
</g>
<g>
</g>
<g>
</g>
<g>
</g>
<g>
</g>
</svg>
